<?xml version="1.0" encoding="utf-8"?>
<!-- Generator: Adobe Illustrator 16.0.0, SVG Export Plug-In . SVG Version: 6.00 Build 0)  -->
<!DOCTYPE svg PUBLIC "-//W3C//DTD SVG 1.1//EN" "http://www.w3.org/Graphics/SVG/1.1/DTD/svg11.dtd">
<svg version="1.1" id="Capa_1" xmlns="http://www.w3.org/2000/svg" xmlns:xlink="http://www.w3.org/1999/xlink" x="0px" y="0px"
	 width="512px" height="512px" viewBox="0 0 512 512" enable-background="new 0 0 512 512" xml:space="preserve">
<g opacity="0.2">
	<g>
		<g>
			<path fill="#FFFFFF" d="M59.99,51.498l33.261-33.249c2.33-2.343,2.33-6.15,0-8.492c-2.342-2.343-6.162-2.343-8.492,0
				L51.498,43.005L18.249,9.757c-2.343-2.343-6.15-2.343-8.493,0c-2.342,2.342-2.342,6.15,0,8.492l33.249,33.249L9.757,84.759
				c-2.342,2.33-2.342,6.15,0,8.492c2.343,2.33,6.15,2.33,8.493,0L51.498,59.99l33.261,33.261c2.33,2.33,6.15,2.33,8.492,0
				c2.33-2.342,2.33-6.162,0-8.492L59.99,51.498z"/>
		</g>
	</g>
</g>
<g opacity="0.2">
	<g>
		<g>
			<path fill="#FFFFFF" d="M409.99,438.498l33.261-33.249c2.33-2.343,2.33-6.15,0-8.492c-2.342-2.343-6.162-2.343-8.492,0
				l-33.261,33.249l-33.249-33.249c-2.343-2.343-6.15-2.343-8.493,0c-2.342,2.343-2.342,6.149,0,8.492l33.25,33.249l-33.25,33.261
				c-2.342,2.33-2.342,6.15,0,8.492c2.344,2.33,6.15,2.33,8.493,0l33.249-33.261l33.261,33.261c2.33,2.33,6.15,2.33,8.492,0
				c2.33-2.343,2.33-6.162,0-8.492L409.99,438.498z"/>
		</g>
	</g>
</g>
<g>
	<g>
		<g>
			<path fill="#FFFFFF" d="M263.99,255.498l33.261-33.249c2.33-2.343,2.33-6.15,0-8.492c-2.342-2.343-6.162-2.343-8.492,0
				l-33.261,33.249l-33.249-33.249c-2.343-2.343-6.15-2.343-8.493,0c-2.342,2.343-2.342,6.149,0,8.492l33.25,33.249l-33.25,33.261
				c-2.342,2.33-2.342,6.15,0,8.492c2.344,2.33,6.15,2.33,8.493,0l33.249-33.261l33.261,33.261c2.33,2.33,6.15,2.33,8.492,0
				c2.33-2.343,2.33-6.162,0-8.492L263.99,255.498z"/>
		</g>
	</g>
</g>
<g opacity="0.5">
	<g>
		<g>
			<path fill="#FFFFFF" d="M49.211,441.374l21.887-21.879c1.533-1.542,1.533-4.047,0-5.588c-1.541-1.542-4.055-1.542-5.588,0
				l-21.886,21.879l-21.879-21.879c-1.542-1.542-4.047-1.542-5.589,0c-1.541,1.541-1.541,4.046,0,5.588l21.879,21.879
				l-21.879,21.887c-1.541,1.533-1.541,4.047,0,5.588c1.542,1.533,4.047,1.533,5.589,0l21.879-21.887l21.886,21.887
				c1.533,1.533,4.047,1.533,5.588,0c1.533-1.542,1.533-4.055,0-5.588L49.211,441.374z"/>
		</g>
	</g>
</g>
<g opacity="0.7">
	<g>
		<g>
			<path fill="#FFFFFF" d="M438.5,55.5l7.992-7.989c0.56-0.563,0.56-1.478,0-2.041c-0.563-0.563-1.48-0.563-2.041,0l-7.991,7.989
				l-7.989-7.989c-0.562-0.563-1.478-0.563-2.04,0s-0.562,1.478,0,2.041l7.988,7.989l-7.988,7.991c-0.562,0.56-0.562,1.478,0,2.041
				c0.563,0.56,1.478,0.56,2.04,0l7.989-7.992l7.991,7.992c0.561,0.56,1.478,0.56,2.041,0c0.56-0.563,0.56-1.48,0-2.041L438.5,55.5z
				"/>
		</g>
	</g>
</g>
</svg>
