<?xml version="1.0" encoding="iso-8859-1"?>
<!-- Generator: Adobe Illustrator 16.0.0, SVG Export Plug-In . SVG Version: 6.00 Build 0)  -->
<!DOCTYPE svg PUBLIC "-//W3C//DTD SVG 1.1//EN" "http://www.w3.org/Graphics/SVG/1.1/DTD/svg11.dtd">
<svg xmlns="http://www.w3.org/2000/svg" xmlns:xlink="http://www.w3.org/1999/xlink" version="1.1" id="Capa_1" x="0px" y="0px" width="512px" height="512px" viewBox="0 0 232.383 232.383" style="enable-background:new 0 0 232.383 232.383;" xml:space="preserve">
<g>
	<g>
		<path d="M232.281,144.863c2.391-22.102-38.047-70.573-57.698-77.968c-5.479-2.062-10.677-3.027-15.619-3.119v-0.018    c-0.149,0-0.302,0.007-0.452,0.009c-0.15-0.001-0.302-0.009-0.451-0.009v0.018c-4.943,0.092-10.141,1.057-15.621,3.119    c-19.651,7.395-60.087,55.866-57.698,77.968c1.665,15.397,14.151,28.698,20.024,42.595c1.45,3.436,0.659,7.175-1.303,10.938    L37.18,92.577C77.219,58.036,118.289,28,175.496,29.957c4.464,0.172,3.203-1.86,1.768-2.994    C147.71,3.638,96.78,12.019,64.859,25.655C33.198,39.184,0,70.196,0,70.196s23.807,39.533,34.536,56.496    c8.724,13.794,41.555,65.854,55.559,88.062c-1.872,1.94-3.576,3.73-4.871,5.305h8.216h138.361    c-6.646-8.083-24.087-21.839-19.543-32.602C218.131,173.562,230.615,160.261,232.281,144.863z M158.512,109.027    c0.008,0,0.016,0,0.021,0C158.525,109.027,158.52,109.027,158.512,109.027c-0.007,0-0.014,0-0.021,0    C158.498,109.027,158.504,109.027,158.512,109.027z M194.689,147.817c-2.846,14.61-17.754,47.793-36.178,48.89    c-18.423-1.097-33.332-34.278-36.178-48.89c-5.115-26.264,5.312-38.766,36.178-38.766    C189.378,109.051,199.805,121.553,194.689,147.817z" fill="#FFFFFF"/>
		<path d="M142.845,128.855c-5.235,0-9.479,4.697-9.479,10.493c0,5.795,6.054,10.493,11.289,10.493    c5.236,0,7.672-4.697,7.672-10.493C152.326,133.552,148.081,128.855,142.845,128.855z" fill="#FFFFFF"/>
		<path d="M175.557,128.855c-5.236,0-9.48,4.697-9.48,10.493c0,5.795,2.436,10.493,7.672,10.493s11.29-4.697,11.29-10.493    C185.038,133.552,180.794,128.855,175.557,128.855z" fill="#FFFFFF"/>
	</g>
</g>
<g>
</g>
<g>
</g>
<g>
</g>
<g>
</g>
<g>
</g>
<g>
</g>
<g>
</g>
<g>
</g>
<g>
</g>
<g>
</g>
<g>
</g>
<g>
</g>
<g>
</g>
<g>
</g>
<g>
</g>
</svg>
