<?xml version="1.0" encoding="utf-8"?>
<!-- Generator: Adobe Illustrator 16.0.0, SVG Export Plug-In . SVG Version: 6.00 Build 0)  -->
<!DOCTYPE svg PUBLIC "-//W3C//DTD SVG 1.1//EN" "http://www.w3.org/Graphics/SVG/1.1/DTD/svg11.dtd">
<svg version="1.1" id="Layer_1" xmlns="http://www.w3.org/2000/svg" xmlns:xlink="http://www.w3.org/1999/xlink" x="0px" y="0px"
	 width="512px" height="512px" viewBox="0 0 512 512" enable-background="new 0 0 512 512" xml:space="preserve">
<g opacity="0.2">
	<g>
		<polygon fill="#FFFFFF" points="177.28,118.75 177.28,108.352 166.883,108.352 166.883,97.954 125.294,97.954 125.294,108.352 
			114.897,108.352 114.897,118.75 101.032,118.75 101.032,108.352 90.635,108.352 90.635,97.954 49.045,97.954 49.045,108.352 
			38.648,108.352 38.648,118.75 28.25,118.75 28.25,181.134 38.648,181.134 38.648,191.532 49.045,191.532 49.045,201.929 
			59.443,201.929 59.443,212.326 80.237,212.326 80.237,222.725 101.032,222.725 101.032,233.122 114.897,233.122 114.897,222.725 
			135.69,222.725 135.69,212.326 156.485,212.326 156.485,201.929 166.883,201.929 166.883,191.532 177.28,191.532 177.28,181.139 
			187.686,181.139 187.686,118.754 		"/>
	</g>
</g>
<g opacity="0.3">
	<g>
		<polygon fill="#FFFFFF" points="375.974,291.806 375.974,281.407 365.577,281.407 365.577,271.009 323.988,271.009 
			323.988,281.407 313.591,281.407 313.591,291.806 299.727,291.806 299.727,281.407 289.33,281.407 289.33,271.009 
			247.739,271.009 247.739,281.407 237.341,281.407 237.341,291.806 226.944,291.806 226.944,354.189 237.341,354.189 
			237.341,364.588 247.739,364.588 247.739,374.984 258.137,374.984 258.137,385.382 278.93,385.382 278.93,395.781 
			299.727,395.781 299.727,406.178 313.591,406.178 313.591,395.781 334.384,395.781 334.384,385.382 355.179,385.382 
			355.179,374.984 365.577,374.984 365.577,364.588 375.974,364.588 375.974,354.194 386.38,354.194 386.38,291.809 		"/>
	</g>
</g>
<g opacity="0.2">
	<g>
		<polygon fill="#FFFFFF" points="493.565,93.481 493.565,85.302 485.387,85.302 485.387,77.123 452.671,77.123 452.671,85.302 
			444.493,85.302 444.493,93.481 433.587,93.481 433.587,85.302 425.409,85.302 425.409,77.123 392.694,77.123 392.694,85.302 
			384.514,85.302 384.514,93.481 376.335,93.481 376.335,142.554 384.514,142.554 384.514,150.733 392.694,150.733 392.694,158.911 
			400.873,158.911 400.873,167.09 417.229,167.09 417.229,175.271 433.587,175.271 433.587,183.448 444.493,183.448 
			444.493,175.271 460.849,175.271 460.849,167.09 477.207,167.09 477.207,158.911 485.387,158.911 485.387,150.733 
			493.565,150.733 493.565,142.558 501.75,142.558 501.75,93.484 		"/>
	</g>
</g>
<g>
	<g>
		<polygon fill="#FFFFFF" points="61.806,454.485 61.806,450.609 57.931,450.609 57.931,446.733 42.427,446.733 42.427,450.609 
			38.551,450.609 38.551,454.485 33.383,454.485 33.383,450.609 29.507,450.609 29.507,446.733 14.002,446.733 14.002,450.609 
			10.126,450.609 10.126,454.485 6.25,454.485 6.25,477.742 10.126,477.742 10.126,481.618 14.002,481.618 14.002,485.493 
			17.878,485.493 17.878,489.369 25.63,489.369 25.63,493.246 33.383,493.246 33.383,497.122 38.551,497.122 38.551,493.246 
			46.302,493.246 46.302,489.369 54.054,489.369 54.054,485.493 57.931,485.493 57.931,481.618 61.806,481.618 61.806,477.743 
			65.686,477.743 65.686,454.487 		"/>
	</g>
</g>
</svg>
